<?xml version="1.0" encoding="UTF-8"?>
<!-- This file is generated by npm run build:icons -->
<svg xmlns="http://www.w3.org/2000/svg" xmlns:xlink="http://www.w3.org/1999/xlink" width="0" height="0">
<defs>
<symbol viewBox="0 0 24 24" fill="none" id="dashboard">
    <circle cx="12" cy="12" r="2" stroke="currentColor" stroke-width="1.5"></circle>
    <path d="M12 10C17 10 16.6 22 9 22" stroke="currentColor" stroke-width="1.5" stroke-linecap="round"></path>
    <path d="M12.3115 14C7.31152 14 7.71152 2 15.3115 2" stroke="currentColor" stroke-width="1.5" stroke-linecap="round"></path>
    <path opacity="0.5" d="M10.6313 10.6961C14.1669 7.16053 22.3693 15.9287 16.9953 21.3027" stroke="currentColor" stroke-width="1.5" stroke-linecap="round" stroke-dasharray="2 2"></path>
    <path opacity="0.5" d="M13.6802 13.3039C10.1447 16.8395 1.94222 8.07135 7.31623 2.69734" stroke="currentColor" stroke-width="1.5" stroke-linecap="round" stroke-dasharray="2 2"></path>
    <path opacity="0.5" d="M10.8516 13.5242C7.31605 9.98865 16.0842 1.78622 21.4582 7.16023" stroke="currentColor" stroke-width="1.5" stroke-linecap="round" stroke-dasharray="2 2"></path>
    <path opacity="0.5" d="M13.4599 10.4758C16.9955 14.0113 8.22736 22.2138 2.85334 16.8398" stroke="currentColor" stroke-width="1.5" stroke-linecap="round" stroke-dasharray="2 2"></path>
    <path d="M10 12.3115C10 7.31152 22 7.71152 22 15.3115" stroke="currentColor" stroke-width="1.5" stroke-linecap="round"></path>
    <path d="M14 12C14 17 2 16.6 2 9" stroke="currentColor" stroke-width="1.5" stroke-linecap="round"></path>
</symbol>
<symbol viewBox="0 0 24 24" fill="none" id="double-caret-down">
    <path d="M19 11L12 17L5 11" stroke="currentColor" stroke-width="1.5" stroke-linecap="round" stroke-linejoin="round"></path>
    <path opacity="0.5" d="M19 7L12 13L5 7" stroke="currentColor" stroke-width="1.5" stroke-linecap="round" stroke-linejoin="round"></path>
</symbol>
<symbol viewBox="0 0 24 24" fill="none" id="double-caret-left">
    <path d="M13 19L7 12L13 5" stroke="currentColor" stroke-width="1.5" stroke-linecap="round" stroke-linejoin="round"></path>
    <path opacity="0.5" d="M16.9998 19L10.9998 12L16.9998 5" stroke="currentColor" stroke-width="1.5" stroke-linecap="round" stroke-linejoin="round"></path>
</symbol>
<symbol viewBox="0 0 24 24" fill="none" id="double-caret-right">
<path d="M11 19L17 12L11 5" stroke="currentColor" stroke-width="1.5" stroke-linecap="round" stroke-linejoin="round"></path>
<path opacity="0.5" d="M6.99976 19L12.9998 12L6.99976 5" stroke="currentColor" stroke-width="1.5" stroke-linecap="round" stroke-linejoin="round"></path>
</symbol>
<symbol viewBox="0 0 24 24" fill="none" id="double-caret-up">
    <path d="M19 13L12 7L5 13" stroke="currentColor" stroke-width="1.5" stroke-linecap="round" stroke-linejoin="round"></path>
    <path opacity="0.5" d="M19 17L12 11L5 17" stroke="currentColor" stroke-width="1.5" stroke-linecap="round" stroke-linejoin="round"></path>
</symbol>
<symbol viewBox="0 0 24 24" fill="none" id="hammer">
    <path d="M7.61282 4.60379C9.34868 2.86793 10.2166 2 11.2951 2C12.3737 2 13.2416 2.86793 14.9774 4.60379L19.3962 9.02256C21.1321 10.7584 22 11.6263 22 12.7049C22 13.7834 21.1321 14.6513 19.3962 16.3872C17.6604 18.123 16.7924 18.991 15.7139 18.991C14.6354 18.991 13.7675 18.123 12.0316 16.3872L7.61282 11.9684C5.87696 10.2326 5.00903 9.36462 5.00903 8.2861C5.00903 7.20757 5.87696 6.33965 7.61282 4.60379Z" stroke="currentColor" stroke-width="1.5"></path>
    <path opacity="0.5" d="M11.2951 15.6509L5.77166 21.1744C5.42921 21.5168 5.25799 21.6881 5.07987 21.7909C4.5965 22.07 4.00097 22.07 3.5176 21.7909C3.33948 21.6881 3.16825 21.5168 2.82581 21.1744C2.48337 20.8319 2.31214 20.6607 2.2093 20.4826C1.93023 19.9992 1.93023 19.4037 2.2093 18.9203C2.31214 18.7422 2.48337 18.571 2.82581 18.2285L8.34928 12.7051" stroke="currentColor" stroke-width="1.5"></path>
    <path opacity="0.5" d="M18.6597 8.28589L19.0279 7.91766C19.3704 7.57521 19.5416 7.40399 19.6445 7.22587C19.9235 6.7425 19.9235 6.14696 19.6445 5.66359C19.5416 5.48547 19.3704 5.31425 19.0279 4.97181C18.6855 4.62936 18.5143 4.45814 18.3362 4.3553C17.8528 4.07623 17.2573 4.07623 16.7739 4.3553C16.5958 4.45814 16.4245 4.62936 16.0821 4.97181L15.7139 5.34004" stroke="currentColor" stroke-width="1.5"></path>
</symbol>
<symbol viewBox="0 0 24 24" fill="none" id="logout">
    <path opacity="0.5" d="M9.00195 7C9.01406 4.82497 9.11051 3.64706 9.87889 2.87868C10.7576 2 12.1718 2 15.0002 2L16.0002 2C18.8286 2 20.2429 2 21.1215 2.87868C22.0002 3.75736 22.0002 5.17157 22.0002 8L22.0002 16C22.0002 18.8284 22.0002 20.2426 21.1215 21.1213C20.2429 22 18.8286 22 16.0002 22H15.0002C12.1718 22 10.7576 22 9.87889 21.1213C9.11051 20.3529 9.01406 19.175 9.00195 17" stroke="currentColor" stroke-width="1.5" stroke-linecap="round"></path>
    <path d="M15 12L2 12M2 12L5.5 9M2 12L5.5 15" stroke="currentColor" stroke-width="1.5" stroke-linecap="round" stroke-linejoin="round"></path>
</symbol>
<symbol viewBox="0 0 24 24" fill="none" id="moon">
    <path d="M21.0672 11.8568L20.4253 11.469L21.0672 11.8568ZM12.1432 2.93276L11.7553 2.29085V2.29085L12.1432 2.93276ZM21.25 12C21.25 17.1086 17.1086 21.25 12 21.25V22.75C17.9371 22.75 22.75 17.9371 22.75 12H21.25ZM12 21.25C6.89137 21.25 2.75 17.1086 2.75 12H1.25C1.25 17.9371 6.06294 22.75 12 22.75V21.25ZM2.75 12C2.75 6.89137 6.89137 2.75 12 2.75V1.25C6.06294 1.25 1.25 6.06294 1.25 12H2.75ZM15.5 14.25C12.3244 14.25 9.75 11.6756 9.75 8.5H8.25C8.25 12.5041 11.4959 15.75 15.5 15.75V14.25ZM20.4253 11.469C19.4172 13.1373 17.5882 14.25 15.5 14.25V15.75C18.1349 15.75 20.4407 14.3439 21.7092 12.2447L20.4253 11.469ZM9.75 8.5C9.75 6.41182 10.8627 4.5828 12.531 3.57467L11.7553 2.29085C9.65609 3.5593 8.25 5.86509 8.25 8.5H9.75ZM12 2.75C11.9115 2.75 11.8077 2.71008 11.7324 2.63168C11.6686 2.56527 11.6538 2.50244 11.6503 2.47703C11.6461 2.44587 11.6482 2.35557 11.7553 2.29085L12.531 3.57467C13.0342 3.27065 13.196 2.71398 13.1368 2.27627C13.0754 1.82126 12.7166 1.25 12 1.25V2.75ZM21.7092 12.2447C21.6444 12.3518 21.5541 12.3539 21.523 12.3497C21.4976 12.3462 21.4347 12.3314 21.3683 12.2676C21.2899 12.1923 21.25 12.0885 21.25 12H22.75C22.75 11.2834 22.1787 10.9246 21.7237 10.8632C21.286 10.804 20.7293 10.9658 20.4253 11.469L21.7092 12.2447Z" fill="currentColor"></path>
</symbol>
<symbol viewBox="0 0 24 24" fill="none" id="notebook">
    <path d="M3 9C3 6.17157 3 4.75736 3.87868 3.87868C4.75736 3 6.17157 3 9 3H15C17.8284 3 19.2426 3 20.1213 3.87868C21 4.75736 21 6.17157 21 9V14C21 15.8856 21 16.8284 20.4142 17.4142C19.8284 18 18.8856 18 17 18H7C5.11438 18 4.17157 18 3.58579 17.4142C3 16.8284 3 15.8856 3 14V9Z" stroke="currentColor" stroke-width="1.5"></path>
    <path opacity="0.5" d="M22 21H2" stroke="currentColor" stroke-width="1.5" stroke-linecap="round"></path>
    <path opacity="0.5" d="M15 15H9" stroke="currentColor" stroke-width="1.5" stroke-linecap="round"></path>
</symbol>
<symbol viewBox="0 0 24 24" fill="none" id="screen">
    <path opacity="0.5" d="M7.142 18.9706C5.18539 18.8995 3.99998 18.6568 3.17157 17.8284C2 16.6569 2 14.7712 2 11C2 7.22876 2 5.34315 3.17157 4.17157C4.34315 3 6.22876 3 10 3H14C17.7712 3 19.6569 3 20.8284 4.17157C22 5.34315 22 7.22876 22 11C22 14.7712 22 16.6569 20.8284 17.8284C20.0203 18.6366 18.8723 18.8873 17 18.965" stroke="currentColor" stroke-width="1.5" stroke-linecap="round"></path>
    <path d="M9.94955 16.0503C10.8806 15.1192 11.3461 14.6537 11.9209 14.6234C11.9735 14.6206 12.0261 14.6206 12.0787 14.6234C12.6535 14.6537 13.119 15.1192 14.0501 16.0503C16.0759 18.0761 17.0888 19.089 16.8053 19.963C16.7809 20.0381 16.7506 20.1112 16.7147 20.1815C16.2973 21 14.8648 21 11.9998 21C9.13482 21 7.70233 21 7.28489 20.1815C7.249 20.1112 7.21873 20.0381 7.19436 19.963C6.91078 19.089 7.92371 18.0761 9.94955 16.0503Z" stroke="currentColor" stroke-width="1.5"></path>
</symbol>
<symbol viewBox="0 0 24 24" fill="none" id="sun">
    <circle cx="12" cy="12" r="6" stroke="currentColor" stroke-width="1.5"></circle>
    <path d="M12 2V3" stroke="currentColor" stroke-width="1.5" stroke-linecap="round"></path>
    <path d="M12 21V22" stroke="currentColor" stroke-width="1.5" stroke-linecap="round"></path>
    <path d="M22 12L21 12" stroke="currentColor" stroke-width="1.5" stroke-linecap="round"></path>
    <path d="M3 12L2 12" stroke="currentColor" stroke-width="1.5" stroke-linecap="round"></path>
    <path opacity="0.5" d="M19.0708 4.92969L18.678 5.32252" stroke="currentColor" stroke-width="1.5" stroke-linecap="round"></path>
    <path opacity="0.5" d="M5.32178 18.6777L4.92894 19.0706" stroke="currentColor" stroke-width="1.5" stroke-linecap="round"></path>
    <path opacity="0.5" d="M19.0708 19.0703L18.678 18.6775" stroke="currentColor" stroke-width="1.5" stroke-linecap="round"></path>
    <path opacity="0.5" d="M5.32178 5.32227L4.92894 4.92943" stroke="currentColor" stroke-width="1.5" stroke-linecap="round"></path>
</symbol>
<symbol viewBox="0 0 24 24" fill="none" id="user">
    <circle cx="12" cy="6" r="4" stroke="currentColor" stroke-width="1.5"></circle>
    <ellipse opacity="0.5" cx="12" cy="17" rx="7" ry="4" stroke="currentColor" stroke-width="1.5"></ellipse>
</symbol>
<symbol viewBox="0 0 24 24" fill="none" id="users">
    <circle cx="9" cy="6" r="4" stroke="currentColor" stroke-width="1.5"></circle>
    <path opacity="0.5" d="M12.5 4.3411C13.0375 3.53275 13.9565 3 15 3C16.6569 3 18 4.34315 18 6C18 7.65685 16.6569 9 15 9C13.9565 9 13.0375 8.46725 12.5 7.6589" stroke="currentColor" stroke-width="1.5"></path>
    <ellipse cx="9" cy="17" rx="7" ry="4" stroke="currentColor" stroke-width="1.5"></ellipse>
    <path opacity="0.5" d="M18 14C19.7542 14.3847 21 15.3589 21 16.5C21 17.5293 19.9863 18.4229 18.5 18.8704" stroke="currentColor" stroke-width="1.5" stroke-linecap="round"></path>
</symbol>
</defs>
</svg>
