<svg width="500" height="424" viewBox="0 0 500 424" fill="none" xmlns="http://www.w3.org/2000/svg">
<path d="M500 369.4H0V369.65H500V369.4Z" fill="#EBEBEB"/>
<path d="M449.9 385.49H416.78V385.74H449.9V385.49Z" fill="#EBEBEB"/>
<path d="M273.22 382.36H260.33V382.61H273.22V382.36Z" fill="#EBEBEB"/>
<path d="M349.67 383.42H322.53V383.67H349.67V383.42Z" fill="#EBEBEB"/>
<path d="M415.78 376.21H359.67V376.46H415.78V376.21Z" fill="#EBEBEB"/>
<path d="M78.99 387.78H52.46V388.03H78.99V387.78Z" fill="#EBEBEB"/>
<path d="M110.89 387.78H87.89V388.03H110.89V387.78Z" fill="#EBEBEB"/>
<path d="M191.81 382.24H131V382.49H191.81V382.24Z" fill="#EBEBEB"/>
<path d="M237 324.8H43.91C42.3974 324.798 40.9476 324.195 39.8789 323.125C38.8102 322.054 38.21 320.603 38.21 319.09V47.6605C38.2232 46.1565 38.8292 44.7185 39.8965 43.6587C40.9637 42.5989 42.406 42.0031 43.91 42.0005H237C238.514 42.0005 239.967 42.6021 241.038 43.6729C242.108 44.7437 242.71 46.1961 242.71 47.7105V319.09C242.71 320.605 242.108 322.057 241.038 323.128C239.967 324.199 238.514 324.8 237 324.8ZM43.91 42.2005C42.4637 42.2031 41.0775 42.7796 40.0557 43.8032C39.0339 44.8269 38.46 46.2141 38.46 47.6605V319.09C38.46 320.537 39.0339 321.924 40.0557 322.948C41.0775 323.971 42.4637 324.548 43.91 324.55H237C238.447 324.548 239.835 323.972 240.858 322.948C241.881 321.925 242.457 320.538 242.46 319.09V47.6605C242.457 46.2132 241.881 44.826 240.858 43.8026C239.835 42.7792 238.447 42.2031 237 42.2005H43.91Z" fill="#EBEBEB"/>
<path d="M453.31 324.8H260.21C258.696 324.798 257.246 324.195 256.175 323.125C255.105 322.055 254.503 320.604 254.5 319.09V47.6605C254.516 46.1556 255.124 44.7176 256.193 43.6581C257.262 42.5986 258.705 42.003 260.21 42.0005H453.31C454.812 42.0057 456.252 42.6027 457.317 43.6622C458.382 44.7217 458.987 46.1582 459 47.6605V319.09C459 320.601 458.401 322.051 457.335 323.121C456.268 324.191 454.821 324.795 453.31 324.8ZM260.21 42.2005C258.763 42.2031 257.375 42.7792 256.352 43.8026C255.329 44.826 254.753 46.2132 254.75 47.6605V319.09C254.753 320.538 255.329 321.925 256.352 322.948C257.375 323.972 258.763 324.548 260.21 324.55H453.31C454.757 324.548 456.145 323.972 457.168 322.948C458.191 321.925 458.767 320.538 458.77 319.09V47.6605C458.767 46.2132 458.191 44.826 457.168 43.8026C456.145 42.7792 454.757 42.2031 453.31 42.2005H260.21Z" fill="#EBEBEB"/>
<path d="M467.06 181.17C470.194 170.337 469.844 158.793 466.06 148.17C470.079 142.418 472.743 135.83 473.853 128.901C474.963 121.972 474.49 114.882 472.47 108.161C470.449 101.441 466.934 95.2657 462.187 90.0976C457.44 84.9296 451.585 80.9031 445.06 78.3203C443.152 64.5662 437.707 51.5427 429.259 40.5231C420.81 29.5036 409.646 20.8651 396.858 15.4525C384.071 10.0398 370.098 8.03824 356.305 9.64344C342.513 11.2486 329.373 16.4057 318.17 24.6103C312.539 18.6972 305.271 14.6001 297.297 12.8439C289.323 11.0877 281.006 11.7523 273.413 14.7527C265.819 17.7531 259.294 22.9525 254.673 29.6848C250.053 36.417 247.548 44.3754 247.48 52.5403C236.929 54.6568 227.111 59.4872 218.996 66.555C210.88 73.6228 204.748 82.684 201.202 92.8448C197.657 103.006 196.821 113.915 198.778 124.497C200.734 135.08 205.416 144.969 212.36 153.19C208.963 159.315 206.991 166.127 206.59 173.119C206.189 180.111 207.37 187.103 210.044 193.576C212.719 200.049 216.818 205.836 222.037 210.506C227.256 215.176 233.461 218.609 240.19 220.55C248.046 222.826 256.363 222.985 264.3 221.01C275.056 235.833 291.061 245.996 309.052 249.426C327.042 252.856 345.664 249.296 361.12 239.47C368.65 256.96 374.83 283.2 361.52 308.93C409.87 304.19 444.78 257.82 437.66 215.33C444.732 212.09 451.02 207.36 456.094 201.464C461.168 195.568 464.909 188.646 467.06 181.17Z" fill="#EBEBEB"/>
<path d="M374.32 299.33C374.188 299.331 374.058 299.306 373.936 299.256C373.814 299.206 373.703 299.133 373.61 299.04C373.481 298.912 373.39 298.751 373.346 298.575C373.302 298.399 373.307 298.214 373.36 298.04C380.17 274.32 373.96 251.58 367.56 236.68L364.31 229.13L357.37 233.54C343.425 242.408 326.622 245.624 310.388 242.532C294.154 239.44 279.709 230.273 270 216.9L267.22 213.07L262.64 214.21C255.157 216.073 247.293 215.708 240.015 213.16C232.736 210.612 226.361 205.992 221.674 199.869C216.986 193.746 214.19 186.387 213.63 178.696C213.07 171.005 214.769 163.318 218.52 156.58L220.85 152.36L217.74 148.68C211.579 141.391 207.424 132.621 205.685 123.235C203.947 113.85 204.685 104.174 207.826 95.161C210.968 86.148 216.405 78.1096 223.6 71.8386C230.796 65.5676 239.502 61.2805 248.86 59.4003L254.42 58.2803L254.48 52.6203C254.531 45.846 256.605 39.2414 260.436 33.6537C264.266 28.066 269.678 23.75 275.978 21.2592C282.278 18.7684 289.179 18.2165 295.795 19.6741C302.411 21.1318 308.44 24.5325 313.11 29.4403L317.35 33.8803L322.35 30.2603C332.573 22.7615 344.568 18.0453 357.161 16.5734C369.753 15.1014 382.512 16.924 394.189 21.8629C405.866 26.8018 416.061 34.6877 423.775 44.7489C431.49 54.81 436.46 66.7018 438.2 79.2603L438.77 83.2603L442.56 84.7603C448.102 86.9542 453.075 90.3747 457.106 94.7654C461.138 99.156 464.122 104.403 465.836 110.111C467.55 115.82 467.948 121.843 467.001 127.728C466.055 133.613 463.788 139.207 460.37 144.09L458.31 147.04L459.52 150.44C463.459 161.532 463.1 173.697 458.513 184.537C453.926 195.377 445.444 204.105 434.74 209L429.87 211.24L430.76 216.52C433.76 234.65 428.33 254.45 415.76 270.85C405.381 284.448 390.967 294.413 374.58 299.32C374.494 299.336 374.407 299.34 374.32 299.33ZM364.77 226.68C364.866 226.666 364.964 226.666 365.06 226.68C365.198 226.723 365.324 226.796 365.431 226.892C365.538 226.989 365.623 227.108 365.68 227.24L369.39 235.86C375.77 250.69 381.94 273.15 375.76 296.79C391.038 291.822 404.442 282.321 414.19 269.55C426.41 253.55 431.73 234.35 428.79 216.77L427.79 210.77C427.752 210.554 427.786 210.331 427.887 210.135C427.988 209.94 428.151 209.784 428.35 209.69L433.91 207.14C444.139 202.451 452.243 194.103 456.628 183.74C461.012 173.376 461.359 161.747 457.6 151.14L456.22 147.26C456.167 147.109 456.152 146.948 456.174 146.789C456.197 146.631 456.257 146.481 456.35 146.35L458.7 142.97C461.946 138.335 464.099 133.026 464.999 127.439C465.899 121.853 465.522 116.135 463.896 110.716C462.269 105.296 459.436 100.315 455.61 96.1473C451.783 91.9793 447.061 88.7324 441.8 86.6503L437.46 84.9303C437.296 84.865 437.153 84.7575 437.044 84.6188C436.935 84.48 436.865 84.3149 436.84 84.1403L436.19 79.5303C434.504 67.3096 429.673 55.7364 422.169 45.9446C414.665 36.1529 404.746 28.4786 393.384 23.6736C382.022 18.8686 369.606 17.0978 357.354 18.5347C345.101 19.9716 333.432 24.5669 323.49 31.8703L317.82 36.0003C317.625 36.1433 317.385 36.211 317.144 36.1908C316.904 36.1706 316.678 36.0638 316.51 35.8903L311.66 30.8203C308.665 27.6962 305.07 25.209 301.09 23.5079C297.11 21.8067 292.828 20.9266 288.5 20.9203C280.063 20.9199 271.967 24.2515 265.975 30.1901C259.982 36.1287 256.576 44.1937 256.5 52.6303L256.43 59.1103C256.435 59.3442 256.357 59.5724 256.211 59.7551C256.065 59.9379 255.859 60.0635 255.63 60.1103L249.28 61.3903C240.267 63.2028 231.882 67.3326 224.951 73.3725C218.02 79.4125 212.782 87.1542 209.754 95.8347C206.726 104.515 206.012 113.835 207.682 122.875C209.353 131.916 213.35 140.365 219.28 147.39L222.83 151.6C222.961 151.755 223.041 151.946 223.061 152.148C223.081 152.35 223.038 152.553 222.94 152.73L220.28 157.55C218.906 160.024 217.812 162.644 217.02 165.36C215.191 171.7 215.062 178.41 216.648 184.815C218.234 191.22 221.477 197.095 226.053 201.849C230.629 206.603 236.376 210.069 242.715 211.898C249.055 213.728 255.765 213.856 262.17 212.27L267.41 210.97C267.603 210.922 267.806 210.932 267.993 211C268.18 211.068 268.343 211.19 268.46 211.35L271.63 215.72C281.03 228.703 295.034 237.606 310.78 240.608C326.525 243.61 342.822 240.484 356.34 231.87L364.27 226.87C364.416 226.763 364.589 226.697 364.77 226.68Z" fill="white"/>
<path d="M304.19 133.19L277.39 129L277.8 126.32C278.269 122.537 279.378 118.861 281.08 115.45C282.573 112.75 284.553 110.35 286.92 108.37C289.327 106.37 294.567 102.95 302.64 98.1103C306.93 95.5903 309.28 93.0503 309.64 90.4603C309.877 89.3602 309.879 88.2224 309.647 87.1213C309.414 86.0202 308.952 84.9806 308.29 84.0703C306.99 82.4003 304.78 81.3203 301.68 80.8403C300.153 80.5504 298.582 80.5784 297.067 80.9225C295.551 81.2666 294.122 81.9195 292.87 82.8403C290.337 84.7137 288.337 88.3537 286.87 93.7603L260.03 86.1103C262.537 76.197 267.457 68.667 274.79 63.5203C282.123 58.3737 292.37 56.827 305.53 58.8803C315.783 60.4737 323.727 63.9003 329.36 69.1603C337.013 76.2803 340.09 84.6603 338.59 94.3003C337.918 98.3634 336.152 102.166 333.48 105.3C330.693 108.674 325.47 112.507 317.81 116.8C312.477 119.834 309.01 122.39 307.41 124.47C305.621 127.06 304.514 130.059 304.19 133.19ZM275.36 136L304.07 140.47L300.13 165.79L271.42 161.32L275.36 136Z" fill="white"/>
<path d="M372.59 172.42L357.71 160.42L358.92 158.93C360.548 156.79 362.526 154.941 364.77 153.46C366.639 152.346 368.696 151.584 370.84 151.21C375.234 150.698 379.656 150.468 384.08 150.52C387.587 150.52 389.92 149.797 391.08 148.35C391.619 147.766 392.027 147.072 392.275 146.317C392.524 145.561 392.607 144.761 392.52 143.97C392.147 142.213 391.112 140.666 389.63 139.65C388.8 138.933 387.83 138.396 386.782 138.073C385.734 137.749 384.63 137.646 383.54 137.77C381.327 138.01 378.817 139.52 376.01 142.3L362.34 128.11C367.38 122.95 373.047 120.1 379.34 119.56C385.633 119.02 392.44 121.71 399.76 127.63C405.453 132.237 409.083 137.147 410.65 142.36C412.797 149.42 411.707 155.624 407.38 160.97C405.539 163.223 403.119 164.931 400.38 165.91C397.48 166.97 392.933 167.457 386.74 167.37C382.41 167.37 379.39 167.65 377.67 168.37C375.67 169.283 373.925 170.674 372.59 172.42ZM354 163.91L369.94 176.82L358.55 190.88L342.61 178L354 163.91Z" fill="white"/>
<path d="M376.75 85.8005L370.31 77.0005L371.19 76.3505C372.395 75.4146 373.747 74.6848 375.19 74.1905C376.381 73.8474 377.626 73.7287 378.86 73.8405C381.351 74.1901 383.817 74.7046 386.24 75.3805C388.18 75.8805 389.57 75.8205 390.42 75.2005C390.8 74.9552 391.124 74.6324 391.37 74.2533C391.616 73.8742 391.78 73.4472 391.85 73.0005C391.889 71.9733 391.531 70.9707 390.85 70.2005C390.495 69.6871 390.039 69.2518 389.509 68.9216C388.979 68.5914 388.387 68.3732 387.77 68.2805C386.52 68.1005 384.92 68.5605 382.97 69.6805L377.5 59.8905C380.639 57.8594 384.418 57.0616 388.11 57.6505C391.657 58.2705 395.013 60.7372 398.18 65.0505C400.64 68.4238 401.927 71.6538 402.04 74.7405C402.2 76.6217 401.868 78.512 401.077 80.2264C400.287 81.9408 399.064 83.4205 397.53 84.5205C396.201 85.486 394.636 86.0735 393 86.2205C390.379 86.2722 387.768 85.8765 385.28 85.0505C383.627 84.4872 381.886 84.2231 380.14 84.2705C378.901 84.4919 377.736 85.0176 376.75 85.8005ZM367.75 78.4205L374.65 87.8405L366.34 93.9205L359.44 84.5105L367.75 78.4205Z" fill="white"/>
<path d="M128.34 210.57C119.887 210.556 111.595 208.258 104.34 203.92C94.19 197.92 87.02 188.5 84.58 178.13C77.5035 177.637 70.8518 174.573 65.8784 169.515C60.905 164.457 57.9534 157.754 57.58 150.67C55.4497 149.192 53.5664 147.387 52 145.32C48.1951 140.472 46.3152 134.389 46.7213 128.239C47.1273 122.09 49.7907 116.306 54.2 112C52.5268 104.89 52.703 97.4695 54.7119 90.4464C56.7207 83.4234 60.4952 77.0321 65.6754 71.882C70.8556 66.7319 77.2688 62.9947 84.3034 61.0268C91.338 59.0588 98.7594 58.9259 105.86 60.6405C107.409 57.1021 109.852 54.0277 112.95 51.7196C116.047 49.4114 119.691 47.9489 123.525 47.4757C127.358 47.0026 131.249 47.5351 134.814 49.021C138.38 50.5069 141.497 52.8949 143.86 55.9504C144.957 57.3687 145.88 58.913 146.61 60.5505C152.201 59.6317 157.934 60.1609 163.263 62.0876C168.591 64.0143 173.337 67.2742 177.048 71.5563C180.758 75.8385 183.31 80.9999 184.458 86.5484C185.607 92.0968 185.315 97.847 183.61 103.25C187.271 106.369 189.961 110.471 191.363 115.072C192.764 119.672 192.818 124.578 191.517 129.208C190.216 133.837 187.616 137.998 184.024 141.195C180.432 144.393 175.999 146.494 171.25 147.25C169.108 155.357 164.348 162.528 157.71 167.65C153.532 170.894 148.731 173.241 143.605 174.545C138.479 175.849 133.14 176.083 127.92 175.23C127.82 184.94 130.07 198.11 140.92 207.53C141.025 207.624 141.103 207.744 141.147 207.877C141.191 208.01 141.199 208.153 141.17 208.29C141.14 208.428 141.073 208.555 140.976 208.657C140.879 208.76 140.756 208.833 140.62 208.87C136.627 210.013 132.493 210.585 128.34 210.57ZM95.73 61.0005C89.4894 61.0195 83.3345 62.4553 77.7296 65.1996C72.1247 67.9439 67.216 71.9251 63.3739 76.8428C59.5318 81.7605 56.8564 87.4865 55.5496 93.5888C54.2428 99.6912 54.3387 106.011 55.83 112.07C55.8643 112.206 55.8611 112.348 55.8205 112.482C55.78 112.616 55.7038 112.737 55.6 112.83C51.3298 116.838 48.7143 122.298 48.2683 128.137C47.8222 133.976 49.578 139.771 53.19 144.38C54.7784 146.421 56.6904 148.188 58.85 149.61C58.9547 149.678 59.0418 149.77 59.1044 149.877C59.167 149.985 59.2032 150.106 59.21 150.23C59.4811 157.09 62.3087 163.599 67.1367 168.479C71.9648 173.359 78.444 176.256 85.3 176.6C85.4716 176.61 85.6351 176.676 85.7653 176.788C85.8955 176.9 85.985 177.052 86.02 177.22C88.23 187.39 95.22 196.63 105.18 202.57C115.272 208.657 127.361 210.504 138.81 207.71C128.08 197.71 126.08 184.05 126.34 174.25C126.344 174.137 126.372 174.026 126.423 173.924C126.474 173.822 126.545 173.732 126.633 173.66C126.721 173.588 126.824 173.536 126.933 173.507C127.043 173.477 127.158 173.472 127.27 173.49C136.489 175.234 146.025 173.394 153.934 168.347C161.843 163.3 167.528 155.426 169.83 146.33C169.865 146.178 169.947 146.039 170.063 145.934C170.179 145.828 170.324 145.761 170.48 145.74C175.029 145.112 179.295 143.169 182.756 140.151C186.216 137.132 188.721 133.17 189.962 128.749C191.203 124.328 191.127 119.641 189.743 115.262C188.359 110.884 185.727 107.005 182.17 104.1C182.047 104.001 181.957 103.866 181.913 103.714C181.868 103.563 181.871 103.401 181.92 103.25C183.66 98.0392 184.01 92.4644 182.937 87.0763C181.864 81.6882 179.404 76.6731 175.8 72.5262C172.197 68.3793 167.574 65.2439 162.388 63.4295C157.202 61.6152 151.633 61.1847 146.23 62.1805C146.053 62.2147 145.87 62.1866 145.711 62.1009C145.552 62.0152 145.428 61.8773 145.36 61.7105C143.794 57.9106 141.131 54.6634 137.712 52.3829C134.292 50.1024 130.271 48.8919 126.161 48.9059C122.051 48.9198 118.039 50.1575 114.635 52.4612C111.231 54.7649 108.591 58.0301 107.05 61.8404C106.977 62.0149 106.844 62.1578 106.676 62.2439C106.508 62.3299 106.314 62.3535 106.13 62.3104C102.732 61.4384 99.238 60.9983 95.73 61.0005Z" fill="#E6E6E6"/>
<path d="M100.59 127L86.78 130.25L86.46 128.87C85.9372 126.943 85.7512 124.941 85.91 122.95C86.0996 121.351 86.5845 119.802 87.34 118.38C89.0309 115.572 90.9015 112.877 92.94 110.31C94.53 108.24 95.17 106.55 94.85 105.22C94.7518 104.64 94.5306 104.087 94.2012 103.599C93.8717 103.111 93.4417 102.699 92.94 102.39C91.743 101.807 90.3668 101.71 89.1 102.12C88.3033 102.282 87.5483 102.605 86.8824 103.072C86.2166 103.538 85.654 104.137 85.23 104.83C84.37 106.24 84.12 108.39 84.47 111.3L70 112.84C69.1545 108.057 70.1015 103.129 72.66 99.0002C75.2 95.0602 79.8667 92.2936 86.66 90.7002C91.94 89.4536 96.4634 89.5502 100.23 90.9902C105.337 92.9302 108.477 96.3869 109.65 101.36C110.138 103.467 110.034 105.668 109.35 107.72C108.683 109.9 106.907 112.787 104.02 116.38C102.02 118.9 100.843 120.82 100.49 122.14C100.116 123.743 100.15 125.414 100.59 127ZM87.17 134L101.97 130.52L105 143.56L90.25 147L87.17 134Z" fill="#EBEBEB"/>
<path d="M135.75 97.7902L126.17 94.8702L126.46 93.8702C126.827 92.5098 127.422 91.2215 128.22 90.0602C128.903 89.1506 129.751 88.3772 130.72 87.7802C132.748 86.6807 134.846 85.7153 137 84.8902C138.7 84.2235 139.7 83.4135 140 82.4602C140.147 82.0703 140.208 81.6535 140.181 81.2378C140.153 80.8222 140.037 80.4172 139.84 80.0502C139.313 79.2714 138.508 78.724 137.59 78.5202C137.046 78.3388 136.471 78.271 135.9 78.3209C135.329 78.3708 134.774 78.5373 134.27 78.8102C132.971 79.7009 132.001 80.994 131.51 82.4902L122.09 78.3002C123.28 75.0811 125.616 72.4142 128.65 70.8102C131.597 69.2968 135.423 69.2602 140.13 70.7002C143.301 71.4981 146.154 73.242 148.31 75.7002C149.469 76.9892 150.27 78.5588 150.635 80.2534C151 81.9479 150.916 83.7084 150.39 85.3602C149.938 86.8197 149.094 88.1271 147.95 89.1402C146.045 90.6202 143.906 91.7696 141.62 92.5402C140.099 93.0436 138.678 93.8084 137.42 94.8002C136.624 95.6432 136.05 96.6706 135.75 97.7902ZM125.07 97.3202L135.33 100.44L132.58 109.5L122.31 106.38L125.07 97.3202Z" fill="#EBEBEB"/>
<path d="M250 414.56C357.082 414.56 443.89 409.492 443.89 403.24C443.89 396.988 357.082 391.92 250 391.92C142.917 391.92 56.11 396.988 56.11 403.24C56.11 409.492 142.917 414.56 250 414.56Z" fill="#F5F5F5"/>
<path d="M157.61 234.44L156.69 234.05C157.413 232.462 157.901 230.778 158.14 229.05L159.14 229.16C158.889 230.985 158.374 232.764 157.61 234.44ZM157.22 223C156.29 220.922 154.843 219.117 153.017 217.757C151.191 216.396 149.047 215.527 146.79 215.23L146.95 214.23C149.371 214.552 151.67 215.488 153.627 216.95C155.584 218.412 157.134 220.35 158.13 222.58L157.22 223Z" fill="#4361EE"/>
<path d="M152 244.5L142.14 249L141.7 248C141.026 246.641 140.589 245.177 140.41 243.67C140.315 242.443 140.447 241.209 140.8 240.03C141.654 237.682 142.656 235.391 143.8 233.17C144.68 231.39 144.903 230.027 144.47 229.08C144.309 228.661 144.061 228.281 143.742 227.966C143.423 227.65 143.041 227.406 142.62 227.25C141.638 227.001 140.598 227.133 139.71 227.62C139.139 227.863 138.624 228.22 138.196 228.668C137.768 229.117 137.436 229.649 137.22 230.23C136.787 231.397 136.92 233.043 137.62 235.17L127 238.49C125.672 235.03 125.672 231.2 127 227.74C128.333 224.407 131.407 221.65 136.22 219.47C139.98 217.75 143.38 217.16 146.41 217.67C148.267 217.894 150.033 218.598 151.535 219.711C153.038 220.824 154.225 222.309 154.98 224.02C155.655 225.524 155.904 227.184 155.7 228.82C155.217 231.375 154.304 233.83 153 236.08C152.123 237.571 151.52 239.207 151.22 240.91C151.178 242.153 151.446 243.387 152 244.5ZM143 251.74L153.54 247L157.77 256.29L147.23 261L143 251.74Z" fill="#4361EE"/>
<path d="M127.64 266.73L122.64 273.53L122 273C121.025 272.324 120.17 271.489 119.47 270.53C118.939 269.731 118.562 268.838 118.36 267.9C118.037 265.979 117.846 264.037 117.79 262.09C117.71 260.54 117.34 259.53 116.69 259.09C116.417 258.858 116.096 258.689 115.751 258.594C115.405 258.499 115.043 258.481 114.69 258.54C113.925 258.74 113.266 259.227 112.85 259.9C112.552 260.281 112.336 260.719 112.213 261.187C112.091 261.654 112.066 262.142 112.14 262.62C112.487 263.899 113.242 265.029 114.29 265.84L108.29 272.15C106.068 270.297 104.605 267.692 104.18 264.83C103.813 262.07 104.86 259.02 107.32 255.68C108.846 253.391 111.028 251.617 113.58 250.59C114.93 250.032 116.402 249.837 117.851 250.023C119.299 250.209 120.675 250.77 121.84 251.65C122.875 252.417 123.677 253.456 124.16 254.65C124.802 256.584 125.113 258.612 125.08 260.65C125.046 262.01 125.256 263.365 125.7 264.65C126.163 265.495 126.83 266.21 127.64 266.73ZM124.27 275.09L129.63 267.81L136.05 272.54L130.69 279.82L124.27 275.09Z" fill="#4361EE"/>
<path d="M234.09 399.64C233.265 399.641 232.455 399.415 231.749 398.986C231.044 398.557 230.47 397.943 230.09 397.21C226.09 389.45 221.02 380.34 211.94 370.48C211.417 369.914 211.05 369.222 210.875 368.472C210.699 367.722 210.722 366.939 210.94 366.2C214.31 354.49 219.61 338.48 219.66 338.32C219.829 337.742 220.114 337.203 220.495 336.737C220.877 336.27 221.349 335.886 221.883 335.606C222.417 335.326 223.002 335.156 223.602 335.107C224.203 335.058 224.808 335.13 225.38 335.319C225.952 335.509 226.48 335.811 226.933 336.209C227.386 336.607 227.754 337.092 228.015 337.635C228.277 338.179 228.426 338.769 228.454 339.371C228.482 339.973 228.389 340.575 228.18 341.14C228.13 341.29 223.56 355.08 220.25 366.29C227.306 374.429 233.295 383.435 238.07 393.09C238.421 393.776 238.59 394.54 238.561 395.309C238.532 396.079 238.306 396.828 237.905 397.485C237.503 398.143 236.94 398.686 236.268 399.063C235.597 399.44 234.84 399.639 234.07 399.64H234.09Z" fill="#4361EE"/>
<path d="M241.56 403.24H206.77L225.21 392.78L240.66 393.38L241.56 403.24Z" fill="#263238"/>
<path d="M238.239 361.093C254.074 356.143 263.584 341.489 259.481 328.364C255.378 315.238 239.215 308.611 223.38 313.561C207.545 318.511 198.034 333.165 202.138 346.29C206.241 359.416 222.404 366.043 238.239 361.093Z" fill="#263238"/>
<path d="M151.65 321C150.615 320.996 149.612 320.634 148.813 319.976C148.014 319.318 147.467 318.403 147.264 317.388C147.062 316.372 147.217 315.318 147.703 314.404C148.188 313.489 148.975 312.771 149.93 312.37C150.707 312.045 151.39 311.529 151.914 310.87C152.438 310.211 152.788 309.43 152.93 308.6C153.02 307.624 153.427 306.704 154.09 305.981C154.753 305.259 155.635 304.773 156.6 304.6C157.714 304.373 158.815 304.089 159.9 303.75C165.98 301.98 173.51 299.75 197.21 306.41C220.59 293.34 220.86 268.82 220.86 267.76C220.86 266.572 221.33 265.432 222.167 264.589C223.005 263.746 224.142 263.268 225.33 263.26C226.514 263.26 227.65 263.728 228.491 264.561C229.332 265.395 229.809 266.526 229.82 267.71C229.82 269.02 229.68 299.8 199.82 315.21C198.802 315.738 197.62 315.853 196.52 315.53C173.92 309.01 167.52 310.87 162.45 312.36L161.07 312.76C160.403 314.527 159.381 316.139 158.067 317.496C156.753 318.853 155.175 319.927 153.43 320.65C152.866 320.886 152.261 321.005 151.65 321Z" fill="#263238"/>
<path d="M204.08 288.89C195.57 255.07 172.9 167.83 245.55 162.5C310.73 157.71 328.61 244.5 332.96 274.5C335.138 289.68 336.32 304.986 336.5 320.32C336.583 328.077 333.955 335.619 329.069 341.644C324.183 347.669 317.347 351.799 309.74 353.32C274.23 360.54 240.63 361.56 217.99 352.63C215.016 351.43 212.511 349.301 210.847 346.559C209.184 343.818 208.451 340.612 208.76 337.42C209.63 327.74 209.65 311 204.08 288.89Z" fill="#4361EE"/>
<path opacity="0.1" d="M333 274.52C328.9 246.2 312.78 167.52 256.34 162.52C253.12 162.194 249.876 162.828 247.017 164.342C244.157 165.857 241.809 168.184 240.27 171.03C237.75 175.91 237.83 181.82 241.6 187.67C254 207 283.67 273.67 279.19 310C277.19 326.53 266.78 339.73 275.8 358.31C287.202 357.312 298.535 355.642 309.74 353.31C317.347 351.789 324.183 347.659 329.069 341.634C333.955 335.609 336.583 328.067 336.5 320.31C336.332 304.987 335.163 289.691 333 274.52Z" fill="black"/>
<path d="M323.24 320.79C323.122 320.79 323.009 320.744 322.925 320.662C322.841 320.58 322.793 320.468 322.79 320.35C322.62 305.036 321.441 289.749 319.26 274.59C308.46 199.93 279.39 162.18 235.16 165.44C235.101 165.444 235.041 165.437 234.985 165.418C234.929 165.399 234.877 165.369 234.833 165.33C234.788 165.291 234.752 165.243 234.725 165.19C234.699 165.137 234.684 165.079 234.68 165.02C234.674 164.901 234.715 164.785 234.793 164.696C234.872 164.606 234.981 164.55 235.1 164.54C279.85 161.24 309.27 199.26 320.1 274.46C322.279 289.66 323.462 304.986 323.64 320.34C323.64 320.46 323.593 320.574 323.508 320.658C323.424 320.743 323.309 320.79 323.19 320.79H323.24Z" fill="#263238"/>
<path d="M322.561 363.475C338.396 358.525 347.906 343.872 343.803 330.746C339.7 317.621 323.537 310.993 307.702 315.944C291.867 320.894 282.357 335.547 286.46 348.673C290.563 361.798 306.726 368.425 322.561 363.475Z" fill="#263238"/>
<path d="M325.3 399.64C324.474 399.642 323.664 399.416 322.958 398.987C322.253 398.559 321.679 397.944 321.3 397.21C317.3 389.45 312.23 380.34 303.14 370.48C302.621 369.912 302.257 369.22 302.082 368.47C301.907 367.721 301.927 366.939 302.14 366.2C305.52 354.49 310.81 338.48 310.87 338.32C311.055 337.761 311.349 337.244 311.733 336.799C312.118 336.354 312.587 335.989 313.113 335.724C313.639 335.46 314.212 335.302 314.799 335.259C315.386 335.217 315.976 335.29 316.535 335.475C317.094 335.66 317.611 335.954 318.056 336.339C318.501 336.723 318.867 337.192 319.131 337.718C319.395 338.244 319.553 338.817 319.596 339.404C319.638 339.992 319.565 340.581 319.38 341.14C319.33 341.29 314.77 355.08 311.46 366.29C318.517 374.426 324.502 383.433 329.27 393.09C329.621 393.776 329.79 394.54 329.761 395.309C329.732 396.079 329.506 396.828 329.105 397.485C328.703 398.143 328.14 398.686 327.468 399.063C326.797 399.44 326.04 399.639 325.27 399.64H325.3Z" fill="#4361EE"/>
<path d="M315.88 262.91C314.877 262.911 313.903 262.575 313.112 261.958C312.322 261.34 311.761 260.475 311.52 259.502C311.278 258.528 311.369 257.502 311.779 256.586C312.189 255.671 312.893 254.919 313.78 254.45C314.64 253.99 334.17 243.32 339.65 217.68C326.65 212.24 303.23 199.95 298.11 193.77C297.606 193.173 297.262 192.457 297.11 191.69C296.519 187.997 296.862 184.216 298.11 180.69L295.75 176.13C295.204 175.069 295.101 173.835 295.465 172.698C295.829 171.562 296.629 170.616 297.69 170.07C298.751 169.524 299.985 169.421 301.122 169.785C302.258 170.149 303.204 170.949 303.75 172.01L307.14 178.57C307.505 179.257 307.684 180.027 307.659 180.804C307.635 181.581 307.407 182.338 307 183C306.085 184.828 305.697 186.874 305.88 188.91C311.65 194.12 334.88 206.45 346.31 210.68C347.279 211.039 348.094 211.722 348.617 212.613C349.14 213.504 349.339 214.549 349.18 215.57C344.11 248.34 319.04 261.84 317.98 262.4C317.332 262.739 316.611 262.914 315.88 262.91Z" fill="#263238"/>
<path d="M301.57 193.15C301.167 193.148 300.771 193.038 300.425 192.83C300.079 192.623 299.794 192.327 299.602 191.972C299.41 191.617 299.317 191.217 299.332 190.814C299.348 190.411 299.471 190.019 299.69 189.68C299.85 189.44 303.55 183.85 309.19 182.34C309.474 182.264 309.771 182.244 310.063 182.283C310.354 182.321 310.636 182.417 310.891 182.564C311.146 182.711 311.369 182.907 311.548 183.141C311.727 183.374 311.859 183.641 311.935 183.925C312.011 184.209 312.031 184.506 311.992 184.798C311.954 185.089 311.858 185.371 311.711 185.626C311.564 185.881 311.368 186.104 311.134 186.283C310.901 186.462 310.634 186.594 310.35 186.67C306.42 187.73 303.47 192.09 303.45 192.13C303.247 192.443 302.968 192.701 302.64 192.879C302.311 193.057 301.944 193.15 301.57 193.15Z" fill="#263238"/>
<path d="M332.77 403.24H297.98L316.42 392.78L331.87 393.38L332.77 403.24Z" fill="#263238"/>
<path d="M259.917 269.253C273.077 268.088 282.894 257.542 281.845 245.697C280.797 233.853 269.279 225.196 256.12 226.361C242.96 227.526 233.143 238.072 234.192 249.917C235.241 261.761 246.758 270.418 259.917 269.253Z" fill="white"/>
<path d="M255.448 261.446C258.938 260.452 260.3 254.496 258.49 248.144C256.68 241.791 252.384 237.447 248.895 238.441C245.405 239.435 244.043 245.391 245.853 251.744C247.662 258.096 251.958 262.44 255.448 261.446Z" fill="#263238"/>
<path d="M230.8 251.86C245.9 249.92 275.8 241.39 280.73 237.95C276.85 226.59 258.73 216.87 242.61 222.35C228 227.28 230.8 251.86 230.8 251.86Z" fill="#263238"/>
<path d="M233.73 259.16C252.48 255.6 276.85 249.62 283.82 245.79C283.39 258.01 279.82 270.4 260.7 274.59C245.06 278 233.73 259.16 233.73 259.16Z" fill="#263238"/>
<path d="M218.285 270.906C225.065 266.421 225.959 255.828 220.282 247.247C214.604 238.666 204.505 235.346 197.725 239.832C190.946 244.318 190.052 254.911 195.729 263.492C201.407 272.073 211.505 275.392 218.285 270.906Z" fill="white"/>
<path d="M208.34 255.68C209.47 261.04 208.49 265.51 206.14 265.68C203.79 265.85 200.97 261.62 199.83 256.26C198.69 250.9 199.68 246.44 202.02 246.26C204.36 246.08 207.2 250.32 208.34 255.68Z" fill="#263238"/>
<path d="M189.75 253.63C199.88 254.82 220 253.49 223.34 251.63C220.87 242 208.89 231 198 232.4C188.18 233.66 189.75 253.63 189.75 253.63Z" fill="#263238"/>
<path d="M191.63 259.94C204.22 260.51 220.63 260.19 225.31 258.42C224.88 268.03 222.36 277.19 209.5 277.04C199 276.92 191.63 259.94 191.63 259.94Z" fill="#263238"/>
<path d="M264.09 216.3C252.647 216.363 241.456 212.945 232 206.5C231.052 205.783 230.428 204.718 230.264 203.541C230.101 202.363 230.413 201.169 231.13 200.22C231.847 199.272 232.912 198.648 234.09 198.485C235.268 198.322 236.462 198.633 237.41 199.35C247.993 206.253 260.833 208.8 273.25 206.46C273.828 206.351 274.423 206.356 274.999 206.476C275.576 206.596 276.123 206.829 276.609 207.16C277.096 207.492 277.512 207.916 277.835 208.408C278.158 208.901 278.38 209.452 278.49 210.03C278.6 210.609 278.594 211.203 278.474 211.78C278.354 212.356 278.122 212.903 277.79 213.39C277.459 213.876 277.035 214.293 276.542 214.616C276.05 214.938 275.498 215.161 274.92 215.27C271.35 215.95 267.724 216.295 264.09 216.3Z" fill="#263238"/>
<path d="M183.88 208.57C183.162 208.567 182.455 208.391 181.819 208.059C181.183 207.726 180.635 207.246 180.222 206.659C179.809 206.072 179.542 205.394 179.445 204.683C179.347 203.972 179.421 203.247 179.66 202.57C182.03 195.95 185.98 191.66 191.38 189.8C201.16 186.43 211.7 192.98 212.15 193.26C213.132 193.906 213.822 194.911 214.072 196.059C214.322 197.208 214.111 198.408 213.485 199.403C212.859 200.398 211.868 201.108 210.725 201.38C209.582 201.653 208.377 201.466 207.37 200.86C205.37 199.59 199 196.65 194.27 198.29C191.55 199.24 189.53 201.63 188.1 205.61C187.786 206.477 187.212 207.227 186.457 207.756C185.702 208.286 184.802 208.57 183.88 208.57Z" fill="#263238"/>
<path d="M219.23 284.25C219.104 284.25 218.979 284.229 218.86 284.19C218.521 284.094 218.233 283.868 218.06 283.56C217.888 283.253 217.845 282.889 217.94 282.55C218.337 281.468 218.945 280.476 219.728 279.63C220.51 278.783 221.452 278.1 222.5 277.62C227.64 274.97 235.5 275.52 245.81 279.25C245.977 279.31 246.13 279.403 246.261 279.523C246.391 279.642 246.497 279.787 246.571 279.948C246.646 280.109 246.687 280.283 246.694 280.46C246.701 280.637 246.672 280.814 246.61 280.98C246.551 281.146 246.459 281.299 246.34 281.43C246.221 281.56 246.078 281.666 245.918 281.741C245.758 281.815 245.584 281.857 245.408 281.864C245.231 281.87 245.055 281.842 244.89 281.78C233.06 277.5 226.89 278.42 223.89 279.96C222.392 280.595 221.201 281.79 220.57 283.29C220.484 283.576 220.306 283.825 220.064 283.998C219.821 284.172 219.528 284.26 219.23 284.25Z" fill="#263238"/>
<path d="M176.88 279.32C161.233 280.711 146.015 285.18 132.1 292.47C139.82 291.01 167.45 325.2 174.55 351.56C187.66 346.71 202.94 343.4 219.23 340.81C209.36 313.64 191.31 282.85 176.88 279.32Z" fill="#4361EE"/>
<path opacity="0.6" d="M176.88 279.32C161.233 280.711 146.015 285.18 132.1 292.47C139.82 291.01 167.45 325.2 174.55 351.56C187.66 346.71 202.94 343.4 219.23 340.81C209.36 313.64 191.31 282.85 176.88 279.32Z" fill="white"/>
<path d="M176.88 279.32C159.8 277.39 132.07 291.69 132.07 291.69C127.16 294.82 128.49 300.69 131.17 303.18C133.74 299.49 162.4 289.89 173.17 288.6C167.82 283.64 172.8 280 176.88 279.32Z" fill="#4361EE"/>
<path opacity="0.2" d="M176.88 279.32C159.8 277.39 132.07 291.69 132.07 291.69C127.16 294.82 128.49 300.69 131.17 303.18C133.74 299.49 162.4 289.89 173.17 288.6C167.82 283.64 172.8 280 176.88 279.32Z" fill="white"/>
<path d="M151.66 321C150.915 321.003 150.182 320.822 149.524 320.473C148.866 320.124 148.305 319.618 147.89 319C144.64 314 146.67 306.41 147.11 304.93C147.485 303.832 148.27 302.922 149.301 302.39C150.332 301.858 151.528 301.746 152.64 302.077C153.752 302.408 154.693 303.157 155.265 304.166C155.837 305.175 155.997 306.366 155.71 307.49C154.98 310 154.83 313.21 155.41 314.09C156.059 315.087 156.286 316.302 156.04 317.466C155.795 318.631 155.097 319.65 154.1 320.3C153.374 320.769 152.525 321.013 151.66 321Z" fill="#263238"/>
<path d="M116.36 98.08L118.44 62.2H163.16V76.24H132.168L131.336 88.824C132.792 88.4773 134.248 88.2 135.704 87.992C137.16 87.7147 138.893 87.576 140.904 87.576C144.509 87.576 147.837 88.0267 150.888 88.928C154.008 89.8293 156.712 91.216 159 93.088C161.288 94.96 163.091 97.3867 164.408 100.368C165.725 103.28 166.384 106.816 166.384 110.976C166.384 114.859 165.725 118.36 164.408 121.48C163.091 124.6 161.219 127.269 158.792 129.488C156.435 131.637 153.523 133.301 150.056 134.48C146.659 135.659 142.88 136.248 138.72 136.248C132.827 136.248 127.696 135.277 123.328 133.336C118.96 131.395 115.008 128.725 111.472 125.328L121.144 113.784C123.917 116.28 126.691 118.221 129.464 119.608C132.237 120.995 135.253 121.688 138.512 121.688C142.256 121.688 145.203 120.821 147.352 119.088C149.571 117.355 150.68 114.824 150.68 111.496C150.68 108.307 149.501 105.845 147.144 104.112C144.856 102.379 141.736 101.512 137.784 101.512C135.496 101.512 133.312 101.789 131.232 102.344C129.221 102.829 127.349 103.453 125.616 104.216L116.36 98.08ZM242.812 98.496C242.812 103.835 242.014 108.792 240.42 113.368C238.894 117.944 236.71 121.931 233.868 125.328C231.025 128.725 227.593 131.395 223.572 133.336C219.62 135.277 215.217 136.248 210.364 136.248C205.51 136.248 201.073 135.312 197.052 133.44C193.1 131.499 189.702 128.829 186.86 125.432C184.086 122.035 181.937 118.083 180.412 113.576C178.886 109 178.124 104.043 178.124 98.704C178.124 93.4347 178.886 88.512 180.412 83.936C182.006 79.2907 184.225 75.2693 187.068 71.872C189.91 68.4747 193.308 65.8053 197.26 63.864C201.281 61.9227 205.718 60.952 210.572 60.952C215.425 60.952 219.828 61.9227 223.78 63.864C227.801 65.736 231.198 68.3707 233.972 71.768C236.814 75.1653 238.998 79.152 240.524 83.728C242.049 88.304 242.812 93.2267 242.812 98.496ZM226.38 98.704C226.38 95.376 225.998 92.2907 225.236 89.448C224.473 86.6053 223.398 84.144 222.012 82.064C220.625 79.984 218.926 78.3547 216.916 77.176C214.974 75.9973 212.79 75.408 210.364 75.408C207.937 75.408 205.753 75.9973 203.812 77.176C201.87 78.2853 200.206 79.88 198.82 81.96C197.433 83.9707 196.358 86.3973 195.596 89.24C194.902 92.0827 194.556 95.168 194.556 98.496C194.556 101.824 194.937 104.909 195.7 107.752C196.462 110.595 197.537 113.056 198.924 115.136C200.31 117.216 201.974 118.845 203.916 120.024C205.926 121.203 208.145 121.792 210.572 121.792C212.998 121.792 215.182 121.237 217.124 120.128C219.065 118.949 220.729 117.32 222.116 115.24C223.502 113.16 224.542 110.733 225.236 107.96C225.998 105.117 226.38 102.032 226.38 98.704ZM285.293 75.928H256.693V62.2H305.885V74.264L287.477 91.84C289.973 92.256 292.399 92.9147 294.757 93.816C297.114 94.7173 299.194 96 300.997 97.664C302.799 99.2587 304.255 101.269 305.365 103.696C306.474 106.053 307.029 108.931 307.029 112.328C307.029 115.795 306.405 118.984 305.157 121.896C303.978 124.808 302.245 127.339 299.957 129.488C297.738 131.637 294.999 133.301 291.741 134.48C288.482 135.659 284.842 136.248 280.821 136.248C274.234 136.248 268.618 135.104 263.973 132.816C259.397 130.459 255.549 127.408 252.429 123.664L263.453 113.16C265.949 116.003 268.549 118.187 271.253 119.712C274.026 121.168 277.285 121.896 281.029 121.896C284.079 121.896 286.541 121.099 288.413 119.504C290.354 117.909 291.325 115.725 291.325 112.952C291.325 109.901 290.077 107.579 287.581 105.984C285.154 104.389 281.653 103.592 277.077 103.592H270.421L267.925 93.4L285.293 75.928Z" fill="#263238"/>
<path d="M116.36 98.08L114.962 97.999L114.916 98.8023L115.586 99.2469L116.36 98.08ZM118.44 62.2V60.8H117.119L117.042 62.119L118.44 62.2ZM163.16 62.2H164.56V60.8H163.16V62.2ZM163.16 76.24V77.64H164.56V76.24H163.16ZM132.168 76.24V74.84H130.858L130.771 76.1476L132.168 76.24ZM131.336 88.824L129.939 88.7316L129.814 90.6256L131.66 90.1859L131.336 88.824ZM135.704 87.992L135.902 89.3779L135.934 89.3733L135.966 89.3673L135.704 87.992ZM150.888 88.928L150.491 90.2706L150.499 90.273L150.888 88.928ZM159 93.088L158.113 94.1715L159 93.088ZM164.408 100.368L163.127 100.934L163.132 100.945L164.408 100.368ZM164.408 121.48L163.118 120.935L164.408 121.48ZM158.792 129.488L159.735 130.523L159.737 130.521L158.792 129.488ZM150.056 134.48L149.605 133.154L149.597 133.157L150.056 134.48ZM123.328 133.336L122.759 134.615L123.328 133.336ZM111.472 125.328L110.399 124.429L109.559 125.431L110.502 126.338L111.472 125.328ZM121.144 113.784L122.081 112.743L121.002 111.773L120.071 112.885L121.144 113.784ZM129.464 119.608L128.838 120.86L129.464 119.608ZM147.352 119.088L146.49 117.985L146.482 117.991L146.473 117.998L147.352 119.088ZM147.144 104.112L146.299 105.228L146.307 105.234L146.315 105.24L147.144 104.112ZM131.232 102.344L131.56 103.705L131.577 103.701L131.593 103.697L131.232 102.344ZM125.616 104.216L124.842 105.383L125.48 105.805L126.18 105.497L125.616 104.216ZM117.758 98.161L119.838 62.281L117.042 62.119L114.962 97.999L117.758 98.161ZM118.44 63.6H163.16V60.8H118.44V63.6ZM161.76 62.2V76.24H164.56V62.2H161.76ZM163.16 74.84H132.168V77.64H163.16V74.84ZM130.771 76.1476L129.939 88.7316L132.733 88.9164L133.565 76.3324L130.771 76.1476ZM131.66 90.1859C133.075 89.849 134.489 89.5798 135.902 89.3779L135.506 86.6061C134.007 86.8202 132.509 87.1056 131.012 87.4621L131.66 90.1859ZM135.966 89.3673C137.311 89.111 138.952 88.976 140.904 88.976V86.176C138.834 86.176 137.009 86.3183 135.442 86.6167L135.966 89.3673ZM140.904 88.976C144.393 88.976 147.585 89.412 150.491 90.2706L151.285 87.5854C148.089 86.6413 144.626 86.176 140.904 86.176V88.976ZM150.499 90.273C153.456 91.127 155.986 92.4308 158.113 94.1715L159.887 92.0045C157.438 90.0012 154.56 88.5317 151.277 87.583L150.499 90.273ZM158.113 94.1715C160.214 95.8905 161.89 98.1327 163.127 100.934L165.689 99.8022C164.292 96.6407 162.362 94.0295 159.887 92.0045L158.113 94.1715ZM163.132 100.945C164.347 103.63 164.984 106.958 164.984 110.976H167.784C167.784 106.674 167.104 102.93 165.684 99.791L163.132 100.945ZM164.984 110.976C164.984 114.699 164.353 118.011 163.118 120.935L165.698 122.025C167.098 118.709 167.784 115.019 167.784 110.976H164.984ZM163.118 120.935C161.877 123.875 160.121 126.376 157.847 128.455L159.737 130.521C162.317 128.162 164.304 125.325 165.698 122.025L163.118 120.935ZM157.849 128.453C155.653 130.455 152.916 132.029 149.605 133.155L150.507 135.805C154.129 134.574 157.216 132.82 159.735 130.523L157.849 128.453ZM149.597 133.157C146.368 134.277 142.748 134.848 138.72 134.848V137.648C143.012 137.648 146.949 137.04 150.515 135.803L149.597 133.157ZM138.72 134.848C132.978 134.848 128.049 133.902 123.897 132.057L122.759 134.615C127.343 136.652 132.675 137.648 138.72 137.648V134.848ZM123.897 132.057C119.681 130.183 115.864 127.606 112.442 124.318L110.502 126.338C114.152 129.844 118.239 132.606 122.759 134.615L123.897 132.057ZM112.545 126.227L122.217 114.683L120.071 112.885L110.399 124.429L112.545 126.227ZM120.207 114.825C123.056 117.388 125.932 119.407 128.838 120.86L130.09 118.356C127.449 117.035 124.779 115.172 122.081 112.743L120.207 114.825ZM128.838 120.86C131.816 122.349 135.047 123.088 138.512 123.088V120.288C135.459 120.288 132.659 119.64 130.09 118.356L128.838 120.86ZM138.512 123.088C142.462 123.088 145.757 122.173 148.231 120.178L146.473 117.998C144.649 119.47 142.05 120.288 138.512 120.288V123.088ZM148.214 120.191C150.836 118.143 152.08 115.167 152.08 111.496H149.28C149.28 114.481 148.305 116.567 146.49 117.985L148.214 120.191ZM152.08 111.496C152.08 107.908 150.725 105.008 147.973 102.984L146.315 105.24C148.277 106.683 149.28 108.705 149.28 111.496H152.08ZM147.989 102.996C145.381 101.02 141.928 100.112 137.784 100.112V102.912C141.544 102.912 144.331 103.737 146.299 105.228L147.989 102.996ZM137.784 100.112C135.382 100.112 133.076 100.403 130.871 100.991L131.593 103.697C133.548 103.175 135.61 102.912 137.784 102.912V100.112ZM130.904 100.983C128.82 101.486 126.868 102.136 125.052 102.935L126.18 105.497C127.831 104.771 129.623 104.173 131.56 103.705L130.904 100.983ZM126.39 103.049L117.134 96.9131L115.586 99.2469L124.842 105.383L126.39 103.049ZM240.42 113.368L239.098 112.907L239.095 112.916L239.092 112.925L240.42 113.368ZM233.868 125.328L234.942 126.226L233.868 125.328ZM223.572 133.336L222.963 132.075L222.955 132.079L223.572 133.336ZM197.052 133.44L196.435 134.697L196.448 134.703L196.461 134.709L197.052 133.44ZM186.86 125.432L185.775 126.317L185.781 126.324L185.786 126.33L186.86 125.432ZM180.412 113.576L179.084 114.019L179.086 114.025L180.412 113.576ZM180.412 83.936L179.088 83.4814L179.084 83.4933L180.412 83.936ZM187.068 71.872L185.994 70.9736V70.9736L187.068 71.872ZM197.26 63.864L196.651 62.6032L196.643 62.6074L197.26 63.864ZM223.78 63.864L223.163 65.1206L223.176 65.127L223.189 65.1332L223.78 63.864ZM233.972 71.768L232.887 72.6533L232.893 72.6599L232.898 72.6664L233.972 71.768ZM240.524 83.728L241.852 83.2853L240.524 83.728ZM225.236 89.448L226.588 89.0852L225.236 89.448ZM222.012 82.064L220.847 82.8406L220.847 82.8406L222.012 82.064ZM216.916 77.176L216.189 78.3727L216.198 78.3783L216.208 78.3838L216.916 77.176ZM203.812 77.176L204.506 78.3915L204.523 78.3823L204.538 78.3727L203.812 77.176ZM198.82 81.96L199.972 82.7548L199.979 82.7457L199.985 82.7366L198.82 81.96ZM195.596 89.24L194.244 88.8772L194.239 88.8927L194.236 88.9083L195.596 89.24ZM195.7 107.752L194.348 108.115L195.7 107.752ZM198.924 115.136L197.759 115.913L198.924 115.136ZM203.916 120.024L203.189 121.221L203.198 121.226L203.208 121.232L203.916 120.024ZM217.124 120.128L217.818 121.344L217.835 121.334L217.85 121.325L217.124 120.128ZM222.116 115.24L223.281 116.017L222.116 115.24ZM225.236 107.96L223.884 107.597L223.881 107.609L223.878 107.62L225.236 107.96ZM241.412 98.496C241.412 103.694 240.636 108.494 239.098 112.907L241.742 113.829C243.393 109.09 244.212 103.976 244.212 98.496H241.412ZM239.092 112.925C237.617 117.35 235.515 121.178 232.794 124.43L234.942 126.226C237.906 122.683 240.172 118.538 241.748 113.811L239.092 112.925ZM232.794 124.43C230.08 127.673 226.807 130.22 222.963 132.075L224.18 134.597C228.379 132.57 231.97 129.777 234.942 126.226L232.794 124.43ZM222.955 132.079C219.214 133.917 215.025 134.848 210.364 134.848V137.648C215.409 137.648 220.026 136.638 224.189 134.593L222.955 132.079ZM210.364 134.848C205.695 134.848 201.462 133.949 197.643 132.171L196.461 134.709C200.684 136.675 205.326 137.648 210.364 137.648V134.848ZM197.669 132.183C193.894 130.329 190.652 127.782 187.934 124.534L185.786 126.33C188.753 129.877 192.306 132.669 196.435 134.697L197.669 132.183ZM187.944 124.547C185.286 121.29 183.214 117.489 181.738 113.127L179.086 114.025C180.66 118.677 182.887 122.78 185.775 126.317L187.944 124.547ZM181.74 113.133C180.267 108.714 179.524 103.908 179.524 98.704H176.724C176.724 104.177 177.506 109.286 179.084 114.019L181.74 113.133ZM179.524 98.704C179.524 93.5713 180.266 88.7994 181.74 84.3787L179.084 83.4933C177.507 88.2246 176.724 93.298 176.724 98.704H179.524ZM181.736 84.3906C183.281 79.8897 185.42 76.0228 188.142 72.7704L185.994 70.9736C183.03 74.5158 180.732 78.6917 179.088 83.4814L181.736 84.3906ZM188.142 72.7704C190.86 69.5221 194.102 66.9752 197.877 65.1206L196.643 62.6074C192.514 64.6355 188.961 67.4272 185.994 70.9736L188.142 72.7704ZM197.868 65.1248C201.684 63.2828 205.911 62.352 210.572 62.352V59.552C205.526 59.552 200.878 60.5625 196.651 62.6032L197.868 65.1248ZM210.572 62.352C215.233 62.352 219.422 63.2829 223.163 65.1206L224.397 62.6074C220.234 60.5624 215.617 59.552 210.572 59.552V62.352ZM223.189 65.1332C227.021 66.9172 230.249 69.4215 232.887 72.6533L235.056 70.8827C232.148 67.3199 228.581 64.5548 224.371 62.5948L223.189 65.1332ZM232.898 72.6664C235.618 75.9176 237.721 79.7464 239.196 84.1707L241.852 83.2853C240.276 78.5576 238.01 74.413 235.046 70.8696L232.898 72.6664ZM239.196 84.1707C240.669 88.5914 241.412 93.3633 241.412 98.496H244.212C244.212 93.09 243.429 88.0166 241.852 83.2853L239.196 84.1707ZM227.78 98.704C227.78 95.2692 227.386 92.0605 226.588 89.0852L223.884 89.8108C224.611 92.5209 224.98 95.4828 224.98 98.704H227.78ZM226.588 89.0852C225.793 86.1208 224.661 83.5145 223.177 81.2874L220.847 82.8406C222.136 84.7735 223.154 87.0899 223.884 89.8108L226.588 89.0852ZM223.177 81.2874C221.681 79.044 219.831 77.2618 217.624 75.9682L216.208 78.3838C218.022 79.4475 219.569 80.924 220.847 82.8406L223.177 81.2874ZM217.642 75.9793C215.467 74.6585 213.028 74.008 210.364 74.008V76.808C212.553 76.808 214.482 77.3362 216.189 78.3727L217.642 75.9793ZM210.364 74.008C207.699 74.008 205.261 74.6585 203.085 75.9793L204.538 78.3727C206.246 77.3362 208.175 76.808 210.364 76.808V74.008ZM203.117 75.9605C200.966 77.1898 199.148 78.9442 197.655 81.1834L199.985 82.7366C201.265 80.8158 202.775 79.3809 204.506 78.3915L203.117 75.9605ZM197.667 81.1652C196.173 83.3312 195.039 85.9109 194.244 88.8772L196.948 89.6028C197.677 86.8838 198.693 84.6101 199.972 82.7548L197.667 81.1652ZM194.236 88.9083C193.513 91.8732 193.156 95.0712 193.156 98.496H195.956C195.956 95.2648 196.292 92.2922 196.956 89.5717L194.236 88.9083ZM193.156 98.496C193.156 101.931 193.549 105.14 194.348 108.115L197.052 107.389C196.325 104.679 195.956 101.717 195.956 98.496H193.156ZM194.348 108.115C195.143 111.079 196.274 113.686 197.759 115.913L200.089 114.359C198.8 112.426 197.782 110.11 197.052 107.389L194.348 108.115ZM197.759 115.913C199.248 118.146 201.056 119.925 203.189 121.221L204.642 118.827C202.893 117.765 201.373 116.286 200.089 114.359L197.759 115.913ZM203.208 121.232C205.442 122.542 207.907 123.192 210.572 123.192V120.392C208.383 120.392 206.411 119.864 204.624 118.816L203.208 121.232ZM210.572 123.192C213.221 123.192 215.648 122.584 217.818 121.344L216.429 118.912C214.717 119.891 212.776 120.392 210.572 120.392V123.192ZM217.85 121.325C219.984 120.029 221.792 118.25 223.281 116.017L220.951 114.463C219.666 116.39 218.147 117.869 216.397 118.931L217.85 121.325ZM223.281 116.017C224.768 113.785 225.867 111.207 226.594 108.3L223.878 107.62C223.218 110.26 222.237 112.535 220.951 114.463L223.281 116.017ZM226.588 108.323C227.386 105.348 227.78 102.139 227.78 98.704H224.98C224.98 101.925 224.611 104.887 223.884 107.597L226.588 108.323ZM285.293 75.928L286.285 76.915L288.658 74.528H285.293V75.928ZM256.693 75.928H255.293V77.328H256.693V75.928ZM256.693 62.2V60.8H255.293V62.2H256.693ZM305.885 62.2H307.285V60.8H305.885V62.2ZM305.885 74.264L306.851 75.2766L307.285 74.8629V74.264H305.885ZM287.477 91.84L286.51 90.8274L284.485 92.7607L287.246 93.2209L287.477 91.84ZM294.757 93.816L295.257 92.5083L294.757 93.816ZM300.997 97.664L300.047 98.6927L300.058 98.7028L300.069 98.7126L300.997 97.664ZM305.365 103.696L304.091 104.278L304.095 104.285L304.098 104.292L305.365 103.696ZM305.157 121.896L303.87 121.345L303.864 121.358L303.859 121.371L305.157 121.896ZM299.957 129.488L298.998 128.468L298.99 128.475L298.982 128.482L299.957 129.488ZM291.741 134.48L291.264 133.163L291.741 134.48ZM263.973 132.816L263.331 134.061L263.343 134.066L263.354 134.072L263.973 132.816ZM252.429 123.664L251.463 122.65L250.515 123.554L251.353 124.56L252.429 123.664ZM263.453 113.16L264.505 112.236L263.542 111.141L262.487 112.146L263.453 113.16ZM271.253 119.712L270.565 120.931L270.583 120.942L270.602 120.952L271.253 119.712ZM288.413 119.504L287.524 118.422L287.514 118.43L287.505 118.438L288.413 119.504ZM287.581 105.984L286.812 107.154L286.819 107.159L286.827 107.164L287.581 105.984ZM270.421 103.592L269.061 103.925L269.322 104.992H270.421V103.592ZM267.925 93.4L266.932 92.413L266.378 92.9701L266.565 93.733L267.925 93.4ZM285.293 74.528H256.693V77.328H285.293V74.528ZM258.093 75.928V62.2H255.293V75.928H258.093ZM256.693 63.6H305.885V60.8H256.693V63.6ZM304.485 62.2V74.264H307.285V62.2H304.485ZM304.918 73.2514L286.51 90.8274L288.443 92.8526L306.851 75.2766L304.918 73.2514ZM287.246 93.2209C289.65 93.6216 291.987 94.2558 294.257 95.1237L295.257 92.5083C292.812 91.5735 290.295 90.8904 287.707 90.459L287.246 93.2209ZM294.257 95.1237C296.453 95.9633 298.379 97.1529 300.047 98.6927L301.946 96.6353C300.009 94.8471 297.775 93.4714 295.257 92.5083L294.257 95.1237ZM300.069 98.7126C301.71 100.164 303.054 102.01 304.091 104.278L306.638 103.114C305.456 100.529 303.889 98.3532 301.924 96.6154L300.069 98.7126ZM304.098 104.292C305.097 106.415 305.629 109.077 305.629 112.328H308.429C308.429 108.785 307.851 105.691 306.631 103.1L304.098 104.292ZM305.629 112.328C305.629 115.623 305.036 118.623 303.87 121.345L306.443 122.447C307.773 119.345 308.429 115.966 308.429 112.328H305.629ZM303.859 121.371C302.756 124.095 301.138 126.457 298.998 128.468L300.915 130.508C303.351 128.22 305.2 125.521 306.454 122.421L303.859 121.371ZM298.982 128.482C296.922 130.478 294.36 132.044 291.264 133.163L292.217 135.797C295.639 134.559 298.553 132.796 300.931 130.494L298.982 128.482ZM291.264 133.163C288.181 134.279 284.705 134.848 280.821 134.848V137.648C284.979 137.648 288.783 137.038 292.217 135.797L291.264 133.163ZM280.821 134.848C274.392 134.848 268.999 133.731 264.591 131.56L263.354 134.072C268.237 136.477 274.076 137.648 280.821 137.648V134.848ZM264.614 131.571C260.195 129.295 256.497 126.36 253.504 122.768L251.353 124.56C254.6 128.456 258.598 131.622 263.331 134.061L264.614 131.571ZM253.394 124.678L264.418 114.174L262.487 112.146L251.463 122.65L253.394 124.678ZM262.401 114.084C264.979 117.02 267.697 119.314 270.565 120.931L271.94 118.493C269.4 117.059 266.919 114.986 264.505 112.236L262.401 114.084ZM270.602 120.952C273.612 122.532 277.102 123.296 281.029 123.296V120.496C277.467 120.496 274.44 119.804 271.903 118.472L270.602 120.952ZM281.029 123.296C284.329 123.296 287.139 122.428 289.32 120.57L287.505 118.438C285.943 119.769 283.829 120.496 281.029 120.496V123.296ZM289.301 120.586C291.603 118.695 292.725 116.095 292.725 112.952H289.925C289.925 115.356 289.105 117.123 287.524 118.422L289.301 120.586ZM292.725 112.952C292.725 109.441 291.247 106.665 288.334 104.804L286.827 107.164C288.906 108.492 289.925 110.362 289.925 112.952H292.725ZM288.349 104.814C285.598 103.006 281.781 102.192 277.077 102.192V104.992C281.524 104.992 284.71 105.773 286.812 107.154L288.349 104.814ZM277.077 102.192H270.421V104.992H277.077V102.192ZM271.78 103.259L269.284 93.067L266.565 93.733L269.061 103.925L271.78 103.259ZM268.917 94.387L286.285 76.915L284.3 74.941L266.932 92.413L268.917 94.387Z" fill="#4361EE"/>
</svg>
